<?xml version="1.0" encoding="UTF-8"?>
<svg width="1830px" height="339px" viewBox="0 0 1830 339" version="1.1" xmlns="http://www.w3.org/2000/svg" xmlns:xlink="http://www.w3.org/1999/xlink">
    <!-- Generator: Sketch 62 (91390) - https://sketch.com -->
    <title>Business Wire Logo Main</title>
    <desc>Created with Sketch.</desc>
    <g id="Business-Wire-Logo-Main" stroke="none" stroke-width="1" fill="none" fill-rule="evenodd">
        <path d="M238.75,252.808 C222.706,252.808 207.713,244.973 197.473,231.273 C187.236,244.973 172.242,252.808 156.198,252.808 C126.875,252.808 102.931,226.631 102.669,194.377 L102.639,187.034 C102.641,180.27 108.151,174.761 114.922,174.761 C121.696,174.761 127.207,180.273 127.207,187.045 L127.215,193.85 C127.215,212.82 140.216,228.253 156.198,228.253 C172.179,228.253 185.181,212.82 185.181,193.85 C185.181,193.727 185.211,141.5 185.211,141.5 C185.211,134.731 190.718,129.224 197.488,129.224 C204.257,129.224 209.764,134.731 209.764,141.5 L209.764,193.85 C209.764,212.82 222.767,228.253 238.75,228.253 C254.73,228.253 267.731,212.82 267.731,193.85 L267.731,141.5 C267.731,134.731 273.239,129.224 280.009,129.224 C286.777,129.224 292.285,134.731 292.285,141.5 L292.285,193.85 C292.285,226.36 268.269,252.808 238.75,252.808 Z M92.463,247.35 C91.09,247.35 89.675,247.071 88.137,246.501 C67.219,236.974 53.553,216.087 53.369,193.256 C53.365,193.208 53.359,94.564 53.359,94.564 C53.359,87.748 58.904,82.201 65.721,82.201 C72.537,82.201 78.083,87.748 78.083,94.564 C78.083,94.564 78.128,192.495 78.128,192.765 C78.128,205.113 84.854,216.57 95.682,222.666 C96.118,222.963 96.687,223.29 97.302,223.638 C102.756,226.705 104.98,229.947 104.98,234.83 C104.98,241.733 99.365,247.35 92.463,247.35 Z M92.805,135.073 C99.791,132.253 105.87,131.611 112.451,131.611 C145.008,131.611 171.494,158.1 171.494,190.655 C171.494,197.626 170.19,204.589 167.62,211.354 C165.451,215.607 161.218,218.206 156.544,218.206 C153.176,218.206 150.019,216.887 147.654,214.491 C145.337,212.146 144.084,209.052 144.125,205.783 C144.148,204.043 144.57,202.567 145.2,200.903 C145.2,200.903 145.811,198.69 145.9,198.325 C146.477,195.815 146.772,193.232 146.772,190.655 C146.772,171.731 131.375,156.335 112.451,156.335 C109.995,156.335 107.466,156.624 104.933,157.192 C104.225,157.307 103.462,157.498 102.611,157.709 C93.869,159.872 89.208,155.889 87.105,150.867 C85.073,146.017 86.086,138.715 92.805,135.073 Z M169.06,0.88 C75.691,0.88 0,76.57 0,169.94 C0,263.309 75.691,339 169.06,339 C262.429,339 338.12,263.309 338.12,169.94 C338.12,76.57 262.429,0.88 169.06,0.88 L169.06,0.88 Z" id="Fill-1" fill="#1C2245"></path>
        <path d="M539.757,146.673 C539.757,113.305 515.82,88.854 482.983,88.854 C450.415,88.854 425.965,113.686 425.965,146.673 C425.965,179.412 450.415,204.492 482.983,204.492 C515.82,204.492 539.757,180.042 539.757,146.673 Z M483.786,77.053 C523.782,77.053 552.13,106.926 552.13,146.673 C552.13,186.307 523.782,216.292 483.786,216.292 C458.953,216.292 438.075,204.278 426.097,185.409 L424.245,213.587 L414.508,213.587 L414.508,32.334 L426.652,32.334 L426.652,107.031 C438.716,88.663 459.334,77.058 483.789,77.058 L483.786,77.053 L483.786,77.053 Z" id="Fill-3" fill="#1C2245"></path>
        <path d="M624.982,216.295 C590,216.295 567.654,193.151 567.654,157.352 L567.654,79.765 L579.797,79.765 L579.797,155.631 C579.797,185.818 597.122,204.494 624.982,204.494 C652.959,204.494 670.164,185.704 670.164,155.631 L670.164,79.765 L682.307,79.765 L682.307,157.352 C682.307,193.151 660.076,216.295 624.979,216.295 L624.982,216.295" id="Fill-4" fill="#1C2245"></path>
        <path d="M748.857,216.295 C718.221,216.295 698.868,200.813 697.08,175.686 L708.992,175.686 C710.784,194.38 726.029,204.954 749.201,204.954 C772.41,204.954 788.111,194.307 788.111,177.519 C788.111,156.772 767.988,152.997 747.196,149.49 C724.129,145.525 699.689,141.217 699.689,113.683 C699.689,91.853 719.213,77.058 748.096,77.058 C777.113,77.058 795.626,91.949 796.767,115.743 L785.197,115.743 C784.054,98.269 770.353,88.056 747.866,88.056 C725.857,88.056 711.49,98.172 711.49,113.338 C711.49,131.516 729.556,134.528 750.1,137.92 C773.414,141.771 800.141,146.383 800.141,177.06 C800.141,200.74 779.629,216.295 748.859,216.295 L748.857,216.295" id="Fill-5" fill="#1C2245"></path>
        <polygon id="Fill-6" fill="#1C2245" points="822.693 213.587 834.836 213.587 834.836 79.765 822.693 79.765"></polygon>
        <path d="M926.39,77.058 C958.51,77.058 978.6,100.163 978.6,134.094 L978.6,213.587 L966.457,213.587 L966.457,136.613 C966.457,106.233 950.584,88.284 923.639,88.284 C897.737,88.284 876.224,110.446 876.224,137.229 L876.224,213.587 L864.08,213.587 L864.08,79.765 L873.128,79.765 L875.525,106.876 C885.189,88.931 904.254,77.058 926.387,77.058 L926.39,77.058" id="Fill-7" fill="#1C2245"></path>
        <path d="M1006.51,139.594 L1116.06,139.594 C1113.13,108.9 1090.69,88.626 1061.71,88.626 C1031.92,88.626 1009.52,109.687 1006.51,139.594 Z M1127.81,150.934 L1006.3,150.934 C1008.26,182.198 1031.08,204.378 1061.71,204.378 C1083.69,204.378 1101.26,193.271 1111.19,174.578 L1124.03,174.578 C1111.82,201.402 1089.62,216.292 1061.71,216.292 C1023.34,216.292 994.248,186.307 994.248,146.542 C994.248,107.042 1023.34,77.055 1061.71,77.055 C1100.87,77.055 1128.04,107.463 1128.04,146.22 C1128.04,147.745 1127.92,149.406 1127.81,150.934 L1127.81,150.934 Z" id="Fill-8" fill="#1C2245"></path>
        <path d="M1189.99,216.295 C1159.36,216.295 1140,200.813 1138.22,175.686 L1150.13,175.686 C1151.92,194.38 1167.17,204.954 1190.34,204.954 C1213.55,204.954 1229.25,194.307 1229.25,177.519 C1229.25,156.772 1209.12,152.997 1188.33,149.49 C1165.27,145.525 1140.83,141.217 1140.83,113.683 C1140.83,91.853 1160.35,77.058 1189.23,77.058 C1218.25,77.058 1236.76,91.949 1237.9,115.743 L1226.33,115.743 C1225.19,98.269 1211.49,88.056 1189,88.056 C1166.99,88.056 1152.63,98.172 1152.63,113.338 C1152.63,131.516 1170.69,134.528 1191.24,137.92 C1214.55,141.771 1241.28,146.383 1241.28,177.06 C1241.28,200.74 1220.76,216.295 1189.99,216.295" id="Fill-9" fill="#1C2245"></path>
        <path d="M1303.5,216.295 C1272.86,216.295 1253.51,200.813 1251.72,175.686 L1263.64,175.686 C1265.43,194.38 1280.67,204.954 1303.84,204.954 C1327.05,204.954 1342.75,194.307 1342.75,177.519 C1342.75,156.772 1322.63,152.997 1301.84,149.49 C1278.77,145.525 1254.33,141.217 1254.33,113.683 C1254.33,91.853 1273.86,77.058 1302.74,77.058 C1331.76,77.058 1350.27,91.949 1351.41,115.743 L1339.84,115.743 C1338.7,98.269 1325,88.056 1302.51,88.056 C1280.5,88.056 1266.13,98.172 1266.13,113.338 C1266.13,131.516 1284.2,134.528 1304.74,137.92 C1328.06,141.771 1354.78,146.383 1354.78,177.06 C1354.78,200.74 1334.27,216.295 1303.5,216.295" id="Fill-10" fill="#1C2245"></path>
        <polyline id="Fill-11" fill="#1C2245" points="1560.85 79.765 1516.07 213.587 1493.77 213.587 1459.27 132.093 1424.95 213.587 1402.65 213.587 1357.83 79.765 1386.19 79.765 1416.4 169.939 1454.81 81.214 1463.7 81.214 1502.63 170.617 1533.31 79.765 1560.85 79.765"></polyline>
        <polygon id="Fill-12" fill="#1C2245" points="1571.85 213.587 1599.36 213.587 1599.36 79.765 1571.85 79.765"></polygon>
        <path d="M1697.31,79.021 L1697.31,105.005 L1682.78,105.005 C1660.03,105.005 1648.68,117.981 1648.68,142.222 L1648.68,213.587 L1621.17,213.587 L1621.17,79.765 L1639.78,79.765 L1644.43,98.031 C1654.01,85.337 1667.14,79.021 1685.41,79.021 L1697.31,79.021" id="Fill-13" fill="#1C2245"></path>
        <path d="M1761.62,101.345 C1740.93,101.345 1725.86,113.824 1721.35,133.675 L1802.27,133.675 C1797.33,113.349 1782.01,101.346 1761.62,101.346 L1761.62,101.345 Z M1829.85,146.99 C1829.85,150.001 1829.6,153.013 1829.28,156.023 L1720.66,156.023 C1724.1,177.712 1739.71,191.044 1761.62,191.044 C1777.61,191.044 1790.56,183.652 1797.63,171.449 L1826.59,171.449 C1815.94,199.704 1791.51,216.847 1761.62,216.847 C1722.5,216.847 1692.87,186.646 1692.87,146.676 C1692.87,106.632 1722.43,76.503 1761.62,76.503 C1802.58,76.503 1829.85,108.048 1829.85,146.99 L1829.85,146.99 Z" id="Fill-14" fill="#1C2245"></path>
        <path d="M614.626,290.078 L635.118,290.078 L624.767,265.428 L614.626,290.078 Z M636.957,294.499 L612.81,294.499 L607.725,306.764 L602.609,306.764 L622.475,258.773 L626.914,258.773 L647.327,306.764 L642.117,306.764 L636.957,294.499 L636.957,294.499 Z" id="Fill-15" fill="#959996"></path>
        <path d="M702.432,293.087 C702.432,288.069 698.431,284.188 693.22,284.188 L678.864,284.188 L678.864,302.006 L693.117,302.006 C698.411,302.006 702.432,298.193 702.432,293.087 Z M678.864,263.484 L678.864,279.48 L693.023,279.48 C697.647,279.48 701.164,275.824 701.164,271.45 C701.164,266.946 697.517,263.484 692.877,263.484 L678.864,263.484 Z M707.383,293.614 C707.383,300.985 701.318,306.764 693.007,306.764 L674.106,306.764 L674.106,258.775 L692.818,258.775 C700.577,258.775 706.068,263.992 706.068,270.828 C706.068,275.35 703.508,279.771 699.652,281.746 C704.335,283.534 707.383,288.19 707.383,293.614 L707.383,293.614 Z" id="Fill-16" fill="#959996"></path>
        <polyline id="Fill-17" fill="#959996" points="746.986 302.149 746.986 306.764 719.494 306.764 719.494 258.773 746.233 258.773 746.233 263.341 724.299 263.341 724.299 279.732 744.449 279.732 744.449 284.201 724.299 284.201 724.299 302.149 746.986 302.149"></polyline>
        <path d="M763.102,282.762 L776.013,282.762 C782.342,282.762 786.647,278.703 786.647,273.062 C786.647,267.446 782.319,263.341 776.013,263.341 L763.102,263.341 L763.102,282.762 Z M775.249,287.328 L763.102,287.328 L763.102,306.764 L758.297,306.764 L758.297,258.773 L776.253,258.773 C785.056,258.773 791.547,264.759 791.547,273.11 C791.547,280.001 786.998,285.318 780.353,286.868 L792.145,306.764 L786.722,306.764 L775.249,287.328 L775.249,287.328 Z" id="Fill-18" fill="#959996"></path>
        <polyline id="Fill-19" fill="#959996" points="815.21 284.168 808.218 284.168 808.218 306.764 803.414 306.764 803.414 258.773 808.218 258.773 808.218 279.65 815.19 279.65 831.61 258.773 837.746 258.773 819.538 281.826 839.404 306.764 833.221 306.764 815.21 284.168"></polyline>
        <path d="M842.744,292.194 L847.644,292.194 C847.644,298.674 852.807,302.649 860.129,302.649 C866.77,302.649 871.803,299.017 871.803,293.41 C871.803,287.157 865.777,285.793 859.243,284.29 C851.819,282.57 843.694,280.664 843.694,271.307 C843.694,263.211 849.995,258.177 859.739,258.177 C869.404,258.177 875.423,263.628 875.423,272.116 L870.665,272.116 C870.665,266.316 866.065,262.791 859.641,262.791 C853.142,262.791 848.503,265.993 848.503,271.113 C848.503,277.023 854.426,278.388 860.87,279.869 C868.432,281.659 876.754,283.612 876.754,293.36 C876.754,302.136 869.629,307.36 860.176,307.36 C849.755,307.36 842.744,301.456 842.744,292.194" id="Fill-20" fill="#959996"></path>
        <polyline id="Fill-21" fill="#959996" points="924.348 258.773 924.348 306.764 919.543 306.764 919.543 284.271 892.823 284.271 892.823 306.764 888.018 306.764 888.018 258.773 892.823 258.773 892.823 279.656 919.543 279.656 919.543 258.773 924.348 258.773"></polyline>
        <polygon id="Fill-22" fill="#959996" points="939.165 306.764 943.97 306.764 943.97 258.773 939.165 258.773"></polygon>
        <path d="M963.58,282.762 L976.491,282.762 C982.82,282.762 987.125,278.703 987.125,273.062 C987.125,267.446 982.797,263.341 976.491,263.341 L963.58,263.341 L963.58,282.762 Z M975.726,287.328 L963.58,287.328 L963.58,306.764 L958.775,306.764 L958.775,258.773 L976.731,258.773 C985.534,258.773 992.024,264.759 992.024,273.11 C992.024,280.001 987.475,285.318 980.831,286.868 L992.623,306.764 L987.2,306.764 L975.726,287.328 L975.726,287.328 Z" id="Fill-23" fill="#959996"></path>
        <polyline id="Fill-24" fill="#959996" points="1031.38 302.149 1031.38 306.764 1003.89 306.764 1003.89 258.773 1030.63 258.773 1030.63 263.341 1008.69 263.341 1008.69 279.732 1028.84 279.732 1028.84 284.201 1008.69 284.201 1008.69 302.149 1031.38 302.149"></polyline>
        <polyline id="Fill-25" fill="#959996" points="1098.56 258.773 1098.56 306.764 1093.76 306.764 1093.76 284.271 1067.04 284.271 1067.04 306.764 1062.23 306.764 1062.23 258.773 1067.04 258.773 1067.04 279.656 1093.76 279.656 1093.76 258.773 1098.56 258.773"></polyline>
        <path d="M1119.93,290.078 L1140.42,290.078 L1130.07,265.428 L1119.93,290.078 Z M1142.26,294.499 L1118.11,294.499 L1113.03,306.764 L1107.91,306.764 L1127.78,258.773 L1132.21,258.773 L1152.63,306.764 L1147.42,306.764 L1142.26,294.499 L1142.26,294.499 Z" id="Fill-26" fill="#959996"></path>
        <polyline id="Fill-27" fill="#959996" points="1186.87 263.291 1171.93 263.291 1171.93 306.764 1167.12 306.764 1167.12 263.291 1152.18 263.291 1152.18 258.773 1186.87 258.773 1186.87 263.291"></polyline>
        <polyline id="Fill-28" fill="#959996" points="1232.67 258.773 1232.67 306.764 1227.87 306.764 1227.87 284.271 1201.15 284.271 1201.15 306.764 1196.34 306.764 1196.34 258.773 1201.15 258.773 1201.15 279.656 1227.87 279.656 1227.87 258.773 1232.67 258.773"></polyline>
        <path d="M1254.03,290.078 L1274.53,290.078 L1264.18,265.428 L1254.03,290.078 Z M1276.37,294.499 L1252.22,294.499 L1247.13,306.764 L1242.02,306.764 L1261.89,258.773 L1266.32,258.773 L1286.74,306.764 L1281.53,306.764 L1276.37,294.499 L1276.37,294.499 Z" id="Fill-29" fill="#959996"></path>
        <polyline id="Fill-30" fill="#959996" points="1355.13 258.773 1339.92 306.764 1335.73 306.764 1321.84 270.282 1308.25 306.764 1304.05 306.764 1288.51 258.773 1293.62 258.773 1306.32 298.802 1320.79 259.987 1322.82 259.987 1337.64 298.827 1350.06 258.773 1355.13 258.773"></polyline>
        <path d="M1369.01,290.078 L1389.51,290.078 L1379.16,265.428 L1369.01,290.078 Z M1391.35,294.499 L1367.2,294.499 L1362.11,306.764 L1357,306.764 L1376.86,258.773 L1381.3,258.773 L1401.72,306.764 L1396.5,306.764 L1391.35,294.499 L1391.35,294.499 Z" id="Fill-31" fill="#959996"></path>
        <polyline id="Fill-32" fill="#959996" points="1423.93 287.691 1423.93 306.764 1418.99 306.764 1418.99 287.699 1401.17 258.773 1406.45 258.773 1421.49 283.146 1436.62 258.773 1441.91 258.773 1423.93 287.691"></polyline>
        <path d="M1466.13,282.789 C1466.13,268.413 1476.42,258.041 1490.68,258.041 C1501.61,258.041 1510.3,264.389 1513.22,274.426 L1508.3,274.426 C1505.54,267.124 1499.01,262.75 1490.68,262.75 C1479.27,262.75 1471.03,271.08 1471.03,282.789 C1471.03,294.499 1479.25,302.787 1490.68,302.787 C1499.24,302.787 1505.88,298.14 1508.59,290.365 L1513.49,290.365 C1510.59,300.923 1501.83,307.498 1490.68,307.498 C1476.4,307.498 1466.13,297.165 1466.13,282.789" id="Fill-33" fill="#959996"></path>
        <path d="M1565.66,282.789 C1565.66,271.307 1557.18,262.702 1545.56,262.702 C1533.95,262.702 1525.47,271.375 1525.47,282.789 C1525.47,294.184 1533.95,302.835 1545.56,302.835 C1557.18,302.835 1565.66,294.253 1565.66,282.789 Z M1520.57,282.789 C1520.57,268.64 1531.07,257.992 1545.56,257.992 C1560.06,257.992 1570.56,268.618 1570.56,282.789 C1570.56,296.939 1560.06,307.545 1545.56,307.545 C1531.07,307.545 1520.57,296.919 1520.57,282.789 L1520.57,282.789 Z" id="Fill-34" fill="#959996"></path>
        <polyline id="Fill-35" fill="#959996" points="1632.06 306.764 1625.37 267.293 1608.23 305.235 1606.87 305.235 1589.75 267.338 1582.99 306.764 1578.09 306.764 1586.29 258.773 1590.87 258.773 1607.49 296.059 1624.2 258.773 1628.87 258.773 1636.96 306.764 1632.06 306.764"></polyline>
        <path d="M1675.79,273.837 C1675.79,267.878 1671.17,263.438 1664.8,263.438 L1652.97,263.438 L1652.97,284.257 L1664.8,284.257 C1671.17,284.257 1675.79,279.814 1675.79,273.837 Z M1680.69,273.837 C1680.69,282.453 1674,288.918 1665.04,288.918 L1652.97,288.918 L1652.97,306.764 L1648.17,306.764 L1648.17,258.773 L1665.04,258.773 C1673.93,258.773 1680.69,265.191 1680.69,273.837 L1680.69,273.837 Z" id="Fill-36" fill="#959996"></path>
        <path d="M1694.14,290.078 L1714.63,290.078 L1704.28,265.428 L1694.14,290.078 Z M1716.47,294.499 L1692.32,294.499 L1687.24,306.764 L1682.12,306.764 L1701.99,258.773 L1706.42,258.773 L1726.84,306.764 L1721.63,306.764 L1716.47,294.499 L1716.47,294.499 Z" id="Fill-37" fill="#959996"></path>
        <polyline id="Fill-38" fill="#959996" points="1773.84 258.773 1773.84 306.764 1769.78 306.764 1740.91 267.212 1740.91 306.764 1736.2 306.764 1736.2 258.773 1740.55 258.773 1769.13 298.002 1769.13 258.773 1773.84 258.773"></polyline>
        <polyline id="Fill-39" fill="#959996" points="1806.65 287.691 1806.65 306.764 1801.7 306.764 1801.7 287.699 1783.88 258.773 1789.17 258.773 1804.2 283.146 1819.34 258.773 1824.62 258.773 1806.65 287.691"></polyline>
    </g>
</svg>